<svg width="80" height="80" viewBox="0 0 80 80" fill="none" xmlns="http://www.w3.org/2000/svg">
<rect width="80" height="80" rx="20" fill="#F8F8F8"/>
<path d="M16.25 17.5H45.6289C48.2536 17.5 50.3789 19.628 50.3789 22.25V27.0459H55.4092C57.5004 27.0459 59.5012 27.8885 60.9609 29.3848L68.5029 37.1191C68.8218 37.4462 69.0003 37.885 69 38.3418V53.6133C69.0007 54.0595 68.831 54.4892 68.5254 54.8145C68.2197 55.1397 67.801 55.3364 67.3555 55.3633L66.9814 55.3857L66.8975 55.751C65.9532 59.8811 62.329 62.9998 57.9414 63C53.5532 63 49.9285 59.8863 48.9814 55.7529L48.8926 55.3652H33.4678L33.3789 55.7539C32.4347 59.8841 28.8128 63 24.4219 63C20.0341 62.9999 16.413 59.8837 15.4658 55.75L15.376 55.3623H13.25C12.7859 55.3623 12.3409 55.1777 12.0127 54.8496C11.6846 54.5215 11.5001 54.0763 11.5 53.6123V22.25C11.5 19.6281 13.6281 17.5 16.25 17.5ZM24.4219 47.7236C21.3157 47.7237 18.7227 50.3165 18.7227 53.6094C18.7229 56.9051 21.3188 59.497 24.4219 59.4971C27.525 59.4971 30.1209 56.9051 30.1211 53.6094C30.1211 50.3164 27.5281 47.7236 24.4219 47.7236ZM57.9414 47.7236C54.8352 47.7236 52.2422 50.3164 52.2422 53.6094C52.2424 56.9049 54.8351 59.4971 57.9414 59.4971C61.0447 59.4968 63.6365 56.9046 63.6367 53.6094C63.6367 50.3168 61.0447 47.7239 57.9414 47.7236Z" fill="white" stroke="#8C8C8C"/>
<path d="M56.3042 34.5586L54.5981 38.4465L52.6659 34.5586H51.1653L53.9198 39.9608L52.7892 42.4777H54.2281L57.7636 34.5586H56.3042ZM50.3225 40.5747H48.9042V40.0222C48.3903 40.4724 47.7736 40.6975 47.0336 40.6975C45.3275 40.6975 44.012 39.3264 44.012 37.5666C44.012 35.8068 45.3481 34.4358 47.0336 34.4358C47.7736 34.4358 48.3903 34.6813 48.9042 35.1111V34.5586H50.3225V40.5747ZM49.0686 37.5666C49.0686 36.4412 48.267 35.5613 47.2186 35.5613C46.1703 35.5613 45.3686 36.4207 45.3686 37.5666C45.3686 38.7125 46.1703 39.572 47.2186 39.572C48.267 39.5515 49.0686 38.6921 49.0686 37.5666ZM36.9614 42.4777H38.4414V40.0631C38.9348 40.4724 39.5309 40.6975 40.2503 40.6975C41.9564 40.6975 43.272 39.3264 43.272 37.5666C43.272 35.8068 41.9359 34.4358 40.2503 34.4358C39.5103 34.4358 38.8936 34.6813 38.3798 35.1111V34.5586H36.9614V42.4777ZM40.0653 35.5613C41.1136 35.5613 41.9153 36.4207 41.9153 37.5666C41.9153 38.7125 41.1136 39.572 40.0653 39.572C39.017 39.572 38.2153 38.7125 38.2153 37.5666C38.2153 36.4207 39.017 35.5613 40.0653 35.5613Z" fill="#00DE5A"/>
<path d="M34.3097 37.7507C34.3097 41.1476 31.5552 43.8896 28.143 43.8896C24.7308 43.8896 21.9763 41.1476 21.9763 37.7507C21.9763 34.3539 24.7308 31.6118 28.143 31.6118C31.5552 31.6118 34.3097 34.3539 34.3097 37.7507ZM29.1708 34.8654V37.9553L27.0124 34.8654H25.2447V40.636H27.1152V37.5461L29.2735 40.636H31.0413V34.8654H29.1708Z" fill="#00DE5A"/>
</svg>
