<svg width="180" height="182" viewBox="0 0 180 182" fill="none" xmlns="http://www.w3.org/2000/svg">
<g clip-path="url(#clip0_142_3073)">
<rect x="20" y="2" width="138" height="239" rx="20" fill="#A1A1A1" stroke="black" stroke-width="4"/>
<rect x="31" y="36" width="116" height="168" rx="8" fill="white"/>
<path d="M31 44C31 39.5817 34.5817 36 39 36H139C143.418 36 147 39.5817 147 44V62H31V44Z" fill="#EBEBEB"/>
<rect x="36" y="43" width="12" height="12" rx="3.75" fill="#03C75A"/>
<path fill-rule="evenodd" clip-rule="evenodd" d="M43.1675 45.9998V49.2113L40.9796 45.9998H39.0676V51.9998H40.9677V48.7882L43.1556 51.9998H45.0676V50.8571V45.9998H43.1675Z" fill="white"/>
<path d="M53.671 50.289C53.223 50.38 52.369 50.471 51.62 50.478L51.004 50.485V46.418H51.718V49.876C52.327 49.876 53.167 49.799 53.566 49.694L53.671 50.289ZM55.96 52.053H55.274V45.816H55.96V52.053ZM54.707 51.752H54.028V48.406H52.754V47.811H54.028V45.942H54.707V51.752ZM61.6126 52.053H60.8986V45.816H61.6126V52.053ZM56.6636 48.483C56.6636 47.167 57.2586 46.299 58.2596 46.299C59.2606 46.299 59.8416 47.167 59.8416 48.49C59.8416 49.799 59.2606 50.667 58.2596 50.667C57.2586 50.667 56.6636 49.799 56.6636 48.483ZM59.1626 48.483C59.1626 47.482 58.7916 46.887 58.2596 46.887C57.7346 46.887 57.3706 47.482 57.3706 48.483C57.3706 49.484 57.7346 50.086 58.2596 50.086C58.7916 50.086 59.1626 49.484 59.1626 48.483ZM67.3843 52.053H66.6703V48.651H65.6273V48.049H66.6703V45.816H67.3843V52.053ZM65.3543 50.499H62.4353V46.306H63.1563V47.86H64.6333V46.306H65.3543V50.499ZM64.6333 49.918V48.42H63.1563V49.918H64.6333ZM74.6678 49.645H72.7428V50.688H75.2138V51.262H69.5788V50.688H72.0288V49.645H70.2998V47.629H73.7718V46.824H70.2788V46.25H74.4858V48.21H71.0208V49.064H74.6678V49.645ZM80.9854 51.143H75.3504V50.562H80.9854V51.143ZM80.2504 46.488C80.2504 48.14 80.1454 49.309 79.9774 50.128L79.2704 50.037C79.4244 49.414 79.5294 48.063 79.5294 47.055H76.0014V46.488H80.2504ZM86.2531 50.338H85.5391V45.816H86.2531V50.338ZM86.4001 51.871H82.1301V49.911H82.8441V51.297H86.4001V51.871ZM84.5031 47.804C84.5031 48.693 83.8591 49.33 82.9071 49.33C81.9551 49.33 81.2971 48.693 81.2971 47.811C81.2971 46.922 81.9481 46.278 82.9071 46.278C83.8591 46.278 84.5031 46.915 84.5031 47.804ZM83.7891 47.804C83.7891 47.258 83.4531 46.873 82.9071 46.873C82.3751 46.873 82.0181 47.272 82.0181 47.804C82.0181 48.315 82.3751 48.721 82.9071 48.721C83.4531 48.721 83.7891 48.315 83.7891 47.804Z" fill="#4D4D4D"/>
<circle cx="43.9875" cy="77" r="4.9875" fill="#03C75A"/>
<path d="M42.1172 77.2077L43.468 78.4546L45.7539 75.7531" stroke="white" stroke-linecap="round" stroke-linejoin="round"/>
<path d="M52.2721 74.559C52.2721 73.452 53.1901 72.642 54.3511 72.642C55.5121 72.642 56.4211 73.434 56.4211 74.559C56.4211 75.693 55.5211 76.413 54.3511 76.413C53.2081 76.413 52.2721 75.693 52.2721 74.559ZM59.5711 74.973V75.846H58.5181V76.881H57.4471V72.192H58.5181V73.173H59.5711V74.037H58.5181V74.973H59.5711ZM53.2531 77.277H58.5271V80.22H57.4651V78.114H53.2531V77.277ZM53.3071 74.55C53.3071 75.18 53.7211 75.612 54.3511 75.612C54.9811 75.612 55.4131 75.162 55.4131 74.55C55.4131 73.965 55.0081 73.506 54.3511 73.506C53.7211 73.506 53.3071 73.983 53.3071 74.55ZM67.1182 75.468H66.1012V78.15H65.0572V72.192H66.1012V74.595H67.1182V75.468ZM66.3082 79.995H60.8272V77.637H61.8892V79.158H66.3082V79.995ZM64.6882 76.845C64.1122 76.908 63.0412 77.016 62.1952 77.043C61.2682 77.079 60.2332 77.124 59.7022 77.124L59.5672 76.269C60.0442 76.269 60.5842 76.26 61.1062 76.251V74.64H62.1502V76.224C62.8702 76.206 64.0762 76.125 64.6072 76.044L64.6882 76.845ZM64.1572 72.759C64.1572 74.082 64.1032 74.982 63.9322 75.612L62.9332 75.468C63.0412 75.063 63.0952 74.352 63.0952 73.596H60.0622V72.759H64.1572ZM69.6076 73.695V72.831H73.8376V73.695H72.2986C72.3166 74.919 73.1626 75.81 74.0806 76.107L73.5046 76.935C72.8926 76.71 72.1096 76.044 71.7676 75.306C71.5246 76.089 70.6786 76.89 69.9046 77.16L69.2836 76.332C70.4446 75.909 71.2186 74.937 71.2186 73.722V73.695H69.6076ZM75.9616 78.006H74.9086V75.171H73.7026V74.325H74.9086V72.192H75.9616V78.006ZM76.1326 79.995H70.5976V77.466H71.6596V79.167H76.1326V79.995ZM80.7727 77.79L80.1787 78.537C79.6567 78.231 78.9907 77.475 78.7837 76.764C78.5947 77.511 77.9287 78.339 77.2717 78.717L76.6327 78.006C77.6767 77.34 78.2077 76.476 78.2707 75.036H76.9567V74.199H80.5657V75.036H79.3057C79.3687 76.449 79.8997 77.286 80.7727 77.79ZM82.1047 79.842H81.1147V76.386H80.1247V75.54H81.1147V72.345H82.1047V79.842ZM83.6527 80.211H82.6537V72.192H83.6527V80.211ZM79.8457 73.668H77.7487V72.84H79.8457V73.668ZM92.8111 75.171H90.5521V75.945H93.6571V76.782H86.4121V75.945H89.4901V75.171H87.3751V72.372H92.7481V73.218H88.4281V74.334H92.8111V75.171ZM92.8291 78.717C92.8291 79.644 91.8121 80.22 90.0391 80.22C88.2661 80.22 87.2491 79.644 87.2491 78.717C87.2491 77.808 88.2661 77.223 90.0301 77.223C91.8121 77.223 92.8291 77.808 92.8291 78.717ZM91.7491 78.726C91.7491 78.312 91.0741 78.06 90.0301 78.06C88.9951 78.06 88.3291 78.312 88.3291 78.726C88.3291 79.14 88.9951 79.383 90.0301 79.383C91.0741 79.383 91.7491 79.14 91.7491 78.726ZM95.3092 74.622C95.3092 75.216 95.7412 75.675 96.4612 75.675C97.1902 75.675 97.6222 75.216 97.6222 74.622C97.6222 74.055 97.1902 73.596 96.4612 73.596C95.7412 73.596 95.3092 74.055 95.3092 74.622ZM100.682 72.192V80.211H99.6382V72.192H100.682ZM94.2292 74.631C94.2292 73.506 95.1112 72.705 96.4612 72.705C97.8202 72.705 98.6842 73.506 98.6842 74.631C98.6842 75.747 97.8202 76.557 96.4612 76.557C95.1112 76.557 94.2292 75.747 94.2292 74.631ZM99.3052 78.159C98.5402 78.258 97.4512 78.348 96.5962 78.393C95.7052 78.429 94.7512 78.465 94.0762 78.456L93.9232 77.556C94.8502 77.556 95.6242 77.547 96.5332 77.511C97.5322 77.475 98.5042 77.403 99.2152 77.313L99.3052 78.159Z" fill="#222222"/>
<circle cx="43.9875" cy="131" r="4.9875" fill="#03C75A"/>
<path d="M42.1172 131.208L43.468 132.455L45.7539 129.753" stroke="white" stroke-linecap="round" stroke-linejoin="round"/>
<path d="M58.669 129.756H56.401V130.341H59.515V131.187H52.27V130.341H55.348V129.756H53.224V126.399H58.606V127.227H54.286V127.686H58.336V128.487H54.286V128.955H58.669V129.756ZM53.125 131.7H58.579V134.22H57.535V132.537H53.125V131.7ZM66.1711 129.756H63.9031V130.341H67.0171V131.187H59.7721V130.341H62.8501V129.756H60.7261V126.399H66.1081V127.227H61.7881V127.686H65.8381V128.487H61.7881V128.955H66.1711V129.756ZM60.6271 131.7H66.0811V134.22H65.0371V132.537H60.6271V131.7ZM75.6265 126.192V129.27H76.7155V130.143H75.6265V134.211H74.5555V126.192H75.6265ZM72.3055 131.304V127.776H70.5955V131.304H72.3055ZM73.3585 126.93V132.141H69.5515V126.93H73.3585ZM80.3206 127.137C80.3206 129.477 79.3396 131.412 77.3956 132.762L76.7836 132.033C77.6836 131.439 78.3766 130.719 78.8086 129.837L77.0446 130.053L76.8916 129.18L79.1146 128.991C79.1956 128.676 79.2496 128.334 79.2766 127.983H77.2336V127.137H80.3206ZM82.0756 133.842H81.0856V130.188H80.1136V129.342H81.0856V126.345H82.0756V133.842ZM83.6776 134.211H82.6786V126.192H83.6776V134.211ZM91.0267 132.6C91.0267 133.536 89.9827 134.121 88.1827 134.121C86.3917 134.121 85.3567 133.536 85.3567 132.6C85.3567 131.637 86.3917 131.043 88.1827 131.043C89.9827 131.043 91.0267 131.637 91.0267 132.6ZM90.9817 126.192V130.89H89.9287V126.192H90.9817ZM89.9197 132.6C89.9197 132.15 89.2717 131.88 88.1827 131.88C87.1117 131.88 86.4637 132.15 86.4637 132.6C86.4637 133.032 87.1117 133.293 88.1827 133.293C89.2717 133.293 89.9197 133.032 89.9197 132.6ZM89.0917 129.594L89.1997 130.395C88.3897 130.566 86.5987 130.638 85.5637 130.638H84.8077V126.723H88.5517V127.56H85.8427V128.235H88.4077V129.072H85.8427V129.801C86.7967 129.837 88.1917 129.774 89.0917 129.594ZM97.4221 127.155V129.072H98.1781V126.345H99.1591V133.842H98.1781V129.918H97.4221V132.087H94.1821V127.155H97.4221ZM100.761 134.211H99.7531V126.192H100.761V134.211ZM96.4321 131.286V127.965H95.1721V131.286H96.4321ZM108.074 134.211H107.021V126.192H108.074V134.211ZM106.418 131.601L105.806 132.393C105.149 131.988 104.312 131.016 104.042 130.179C103.781 131.097 102.953 132.114 102.125 132.564L101.486 131.79C102.782 130.953 103.475 129.684 103.475 128.091V126.867H104.564V128.037C104.564 129.621 105.203 130.818 106.418 131.601ZM113.956 131.484L113.371 132.303C112.66 131.943 111.679 130.926 111.436 130.152C111.247 130.962 110.437 132.033 109.501 132.492L108.871 131.709C110.221 130.989 110.878 129.747 110.878 128.064V127.848H109.276V127.011H113.533V127.848H111.985V128.055C111.985 129.747 112.75 130.863 113.956 131.484ZM115.576 134.211H114.523V126.192H115.576V134.211ZM122.521 129.972H118.732V126.498H119.767V127.506H121.468V126.48H122.521V129.972ZM121.468 129.153V128.334H119.767V129.153H121.468ZM125.923 128.703H124.798V130.26H123.727V126.192H124.798V127.839H125.923V128.703ZM125.023 134.148H119.56V132.024H123.727V131.511H119.497V130.674H124.798V132.798H120.604V133.302H125.023V134.148ZM132.444 132.708C132.444 133.626 131.427 134.193 129.654 134.193C127.881 134.193 126.855 133.626 126.855 132.708C126.855 131.79 127.881 131.214 129.645 131.214C131.427 131.214 132.444 131.79 132.444 132.708ZM129.654 127.758C129.249 128.676 127.944 129.315 126.783 129.468L126.342 128.649C127.683 128.514 129.114 127.785 129.114 126.579V126.345H130.203V126.579C130.203 127.785 131.832 128.595 132.984 128.649L132.534 129.477C131.463 129.324 130.059 128.676 129.654 127.758ZM133.272 130.845H126.027V130.008H129.123V128.973H130.176V130.008H133.272V130.845ZM131.364 132.708C131.364 132.303 130.689 132.051 129.645 132.051C128.61 132.051 127.944 132.303 127.944 132.708C127.944 133.122 128.61 133.365 129.645 133.365C130.689 133.365 131.364 133.122 131.364 132.708Z" fill="#222222"/>
<path d="M41 90L137 90" stroke="#EBEBEB" stroke-width="5" stroke-linecap="round" stroke-linejoin="round"/>
<path d="M41 144L137 144" stroke="#EBEBEB" stroke-width="5" stroke-linecap="round" stroke-linejoin="round"/>
<path d="M41 100L137 100" stroke="#EBEBEB" stroke-width="5" stroke-linecap="round" stroke-linejoin="round"/>
<path d="M41 154L137 154" stroke="#EBEBEB" stroke-width="5" stroke-linecap="round" stroke-linejoin="round"/>
<path d="M41 110L84 110" stroke="#EBEBEB" stroke-width="5" stroke-linecap="round" stroke-linejoin="round"/>
<path d="M41 164L84 164" stroke="#EBEBEB" stroke-width="5" stroke-linecap="round" stroke-linejoin="round"/>
<path d="M74 18L104 18" stroke="black" stroke-width="10" stroke-linecap="round" stroke-linejoin="round"/>
</g>
<defs>
<clipPath id="clip0_142_3073">
<rect width="142" height="182" fill="white" transform="translate(18)"/>
</clipPath>
</defs>
</svg>
