<svg width="80" height="80" viewBox="0 0 80 80" fill="none" xmlns="http://www.w3.org/2000/svg">
<rect width="80" height="80" rx="20" fill="#F8F8F8"/>
<g clip-path="url(#clip0_109_1017)">
<rect x="7" y="28" width="66" height="24.75" rx="3.3" fill="#21C96B"/>
<path fill-rule="evenodd" clip-rule="evenodd" d="M21.4318 40.7827L17.1497 34.6H13.6006V46.15H17.3194V39.9694L21.6014 46.15H25.1506V34.6H21.4318V40.7827Z" fill="white"/>
<path d="M37.2028 42.2164H41.0836V40.738H33.586V39.352H40.8196V35.0224H31.8436V36.5404H39.13V37.8736H31.9096V42.2164H35.5132V44.1832H30.55V45.7276H42.166V44.1832H37.2028V42.2164Z" fill="white"/>
<path d="M51.5412 36.8176C51.5412 38.1112 51.2904 40.4872 50.934 42.5464L52.6104 42.8104C52.98 40.6324 53.2308 38.23 53.2308 36.3028V35.1544H44.3208V36.6988H51.5412V36.8176ZM43.0668 45.7276H54.6828V44.1832H43.0668V45.7276Z" fill="white"/>
<path d="M66.2756 43.378V34.2568H64.586V43.378H66.2756ZM59.3984 41.53C61.2728 41.53 62.7776 40.4476 62.7776 38.1376V37.9396C62.7776 35.6032 61.2728 34.5208 59.3984 34.5208C57.5108 34.5208 55.9928 35.6032 55.9928 37.9396V38.1376C55.9928 40.4476 57.5108 41.53 59.3984 41.53ZM59.3984 40.0516C58.448 40.0516 57.6824 39.4444 57.6824 38.1244V37.9396C57.6824 36.6196 58.448 35.9992 59.3984 35.9992C60.3224 35.9992 61.1012 36.6196 61.1012 37.9396V38.1244C61.1012 39.4444 60.3224 40.0516 59.3984 40.0516ZM66.7376 46.5856V45.0544H59.5964V42.5464H57.9068V46.5856H66.7376Z" fill="white"/>
</g>
<defs>
<clipPath id="clip0_109_1017">
<rect width="66" height="24.75" fill="white" transform="translate(7 28)"/>
</clipPath>
</defs>
</svg>
