<svg width="80" height="80" viewBox="0 0 80 80" fill="none" xmlns="http://www.w3.org/2000/svg">
<rect width="80" height="80" rx="20" fill="#F8F8F8"/>
<path d="M39.8926 27.8189L21.0127 34.0988L7.5127 31.9401L26.0409 26.0987L39.8926 27.8189Z" fill="#D9D9D9" stroke="#8C8C8C"/>
<path d="M39.9052 27.8189L58.7852 34.0988L72.2852 31.9401L53.757 26.0987L39.9052 27.8189Z" fill="#D9D9D9" stroke="#8C8C8C"/>
<path d="M40.0111 41.0987L21.0234 34.0992L39.9048 27.7738L58.8256 34.0969L40.0111 41.0987Z" fill="black"/>
<path d="M30.5 20.5H49.5C50.8807 20.5 52 21.6193 52 23V41.5H28V23C28 21.6193 29.1193 20.5 30.5 20.5Z" fill="white" stroke="#D9D9D9"/>
<path d="M46.4392 30.4005V30.4191L49.2577 34.6236H47.8531L45.6672 31.1632H45.6579L45.109 31.8051V34.6236H43.9463V27.4331H45.109V30.3632H45.1183L47.7043 27.4331H49.1182L46.4392 30.4005Z" fill="#03C75A"/>
<path d="M39.2702 28.4005H38.5075V33.6562H39.233C40.833 33.6562 41.8097 32.7911 41.8097 31.0144C41.8097 29.2377 40.9632 28.4005 39.2702 28.4005ZM39.1121 34.6236H37.3447V27.4331H39.1121C41.726 27.4331 43.0562 28.5773 43.0562 30.9958C43.0562 33.5352 41.2516 34.6329 39.1121 34.6236Z" fill="#03C75A"/>
<path d="M35.8113 29.0702C35.3276 28.6051 34.7508 28.3167 34.0718 28.3167C33.309 28.3167 32.9276 28.5865 32.9276 29.1446C32.9276 29.6841 33.2904 29.9632 33.8858 30.2143L34.5276 30.4934C35.6531 30.9864 36.295 31.6376 36.295 32.5957C36.295 34.0375 35.2532 34.7072 33.7369 34.7072C32.9276 34.7072 32.2114 34.5119 31.6719 34.0282V32.8189C31.6719 32.7445 31.7556 32.7073 31.8021 32.7538C32.323 33.3584 32.8718 33.7026 33.7462 33.7026C34.6578 33.7026 35.0392 33.3677 35.0392 32.6608C35.0392 32.1213 34.6485 31.7771 33.9509 31.4701L33.309 31.1911C32.3881 30.7818 31.7184 30.2516 31.7184 29.1725C31.7184 27.954 32.6672 27.34 34.0346 27.3307C34.6392 27.3307 35.3927 27.4516 35.9415 27.926V29.0051C35.9415 29.0795 35.8578 29.1167 35.8113 29.0702Z" fill="#03C75A"/>
<path d="M40 41.078L21 34.1114V54.4459L40 60.7549V41.078Z" fill="#D9D9D9" stroke="#8C8C8C"/>
<path d="M40 41.078L58.7607 34.1114V54.4459L40 60.7549V41.078Z" fill="#D9D9D9" stroke="#8C8C8C"/>
<path d="M40.017 41.0699L58.7871 34.0962L72.7988 37.7916L55.2988 44.9994L40.017 41.0699Z" fill="#D9D9D9" stroke="#8C8C8C"/>
<path d="M40.0165 41.077L21.0117 34.096L7 37.7914L24.5 44.9991L40.0165 41.077Z" fill="#D9D9D9" stroke="#8C8C8C"/>
</svg>
