<svg width="180" height="182" viewBox="0 0 180 182" fill="none" xmlns="http://www.w3.org/2000/svg">
<g clip-path="url(#clip0_227_774)">
<rect x="20" y="2" width="138" height="239" rx="20" fill="#A1A1A1" stroke="black" stroke-width="4"/>
<rect x="31" y="36" width="116" height="168" rx="8" fill="white"/>
<path d="M31 44C31 39.5817 34.5817 36 39 36H139C143.418 36 147 39.5817 147 44V62H31V44Z" fill="#EBEBEB"/>
<rect x="36" y="43" width="12" height="12" rx="3.75" fill="#03C75A"/>
<path fill-rule="evenodd" clip-rule="evenodd" d="M43.1675 45.9998V49.2113L40.9796 45.9998H39.0676V51.9998H40.9677V48.7882L43.1556 51.9998H45.0676V50.8571V45.9998H43.1675Z" fill="white"/>
<path d="M51.06 51.206V46.411H51.781V50.604H53.86V51.206H51.06ZM55.6875 51.269C54.6305 51.269 54.0285 50.611 54.0285 49.498V49.379C54.0285 48.245 54.7005 47.566 55.6945 47.566C56.7305 47.566 57.3395 48.231 57.3395 49.358V49.463C57.3395 50.597 56.6605 51.269 55.6875 51.269ZM55.6945 50.73C56.2755 50.73 56.6185 50.317 56.6185 49.533V49.344C56.6185 48.399 56.1985 48.119 55.6805 48.119C55.0785 48.119 54.7355 48.532 54.7355 49.316V49.505C54.7355 50.45 55.1625 50.73 55.6945 50.73ZM59.0421 52.242C57.9431 52.242 57.4111 52.004 57.4111 51.472C57.4111 51.101 57.7121 50.863 58.0761 50.737V50.702C57.8731 50.632 57.7121 50.548 57.7121 50.31C57.7121 50.058 57.8451 49.848 58.1251 49.652C57.8591 49.47 57.6771 49.19 57.6771 48.791V48.721C57.6771 47.979 58.2511 47.566 59.0631 47.566C59.2591 47.566 59.4341 47.587 59.6021 47.622H60.8131V48.119H60.2391C60.3651 48.259 60.4281 48.455 60.4281 48.693V48.763C60.4281 49.512 59.8331 49.869 59.0561 49.869C58.8531 49.869 58.6571 49.848 58.4751 49.792C58.3981 49.869 58.3421 49.96 58.3421 50.051C58.3421 50.233 58.4401 50.247 58.6711 50.247H59.6511C60.3161 50.247 60.7921 50.485 60.7921 51.178C60.7921 51.836 60.2811 52.242 59.0421 52.242ZM59.0281 51.731C59.8051 51.731 60.0781 51.626 60.0781 51.283C60.0781 50.989 59.9101 50.87 59.4901 50.87H58.5311C58.2931 50.947 58.1181 51.108 58.1181 51.374C58.1181 51.654 58.3771 51.731 59.0281 51.731ZM59.0561 49.393C59.5041 49.393 59.7561 49.197 59.7561 48.791V48.693C59.7561 48.245 59.4831 48.056 59.0561 48.056C58.6221 48.056 58.3561 48.273 58.3561 48.679V48.777C58.3561 49.197 58.6361 49.393 59.0561 49.393ZM62.6535 51.206V47.636H63.3395V51.206H62.6535ZM62.6465 46.971V46.299H63.3465V46.971H62.6465ZM64.0087 51.206V47.636H64.6737V47.944H64.7017C65.0027 47.734 65.4647 47.566 65.8987 47.566C66.5917 47.566 66.9277 47.853 66.9277 48.546V51.206H66.2347V48.707C66.2347 48.315 66.1227 48.154 65.5837 48.154C65.2827 48.154 64.9397 48.259 64.6947 48.378V51.206H64.0087ZM70.2818 51.241C69.6868 51.241 69.2948 50.996 69.2948 50.345V48.189H68.7908V47.636H69.2948V46.796H69.9878V47.636H70.8488V48.189H69.9878V50.247C69.9878 50.569 70.0928 50.688 70.4778 50.688C70.6248 50.688 70.7788 50.667 70.9188 50.646V51.108C70.7718 51.171 70.6108 51.241 70.2818 51.241ZM72.758 51.269C71.701 51.269 71.099 50.611 71.099 49.498V49.379C71.099 48.245 71.771 47.566 72.765 47.566C73.801 47.566 74.41 48.231 74.41 49.358V49.463C74.41 50.597 73.731 51.269 72.758 51.269ZM72.765 50.73C73.346 50.73 73.689 50.317 73.689 49.533V49.344C73.689 48.399 73.269 48.119 72.751 48.119C72.149 48.119 71.806 48.532 71.806 49.316V49.505C71.806 50.45 72.233 50.73 72.765 50.73ZM76.4834 51.206V46.411H77.3164L79.4304 50.002H79.4514V46.411H80.1024V51.206H79.3744L77.1624 47.405H77.1344V51.206H76.4834ZM81.7267 51.269C81.0827 51.269 80.6207 50.947 80.6207 50.254C80.6207 49.617 81.0407 49.302 81.7337 49.211L82.6297 49.106V48.798C82.6297 48.266 82.4057 48.147 81.7757 48.147C81.4257 48.147 81.1317 48.203 80.9147 48.252V47.769C81.2437 47.636 81.6077 47.566 82.0487 47.566C82.8537 47.566 83.3227 47.902 83.3227 48.623V51.206H82.7557L82.6927 50.905H82.6507C82.4827 51.115 82.1887 51.269 81.7267 51.269ZM81.9087 50.765C82.2027 50.765 82.4897 50.667 82.6297 50.534V49.582L81.8877 49.659C81.5097 49.701 81.3207 49.855 81.3207 50.226C81.3207 50.59 81.5517 50.765 81.9087 50.765ZM84.8547 51.206L83.5457 47.636H84.2877L85.2187 50.345H85.2397L86.1847 47.636H86.8567L85.5547 51.206H84.8547ZM88.6705 51.269C87.5155 51.269 86.9415 50.583 86.9415 49.463V49.372C86.9415 48.147 87.6765 47.566 88.5375 47.566C89.5455 47.566 90.0145 48.147 90.0145 49.274V49.61H87.6485C87.6975 50.429 88.0965 50.702 88.7965 50.702C89.2655 50.702 89.5735 50.59 89.9025 50.443V50.926C89.6785 51.087 89.2655 51.269 88.6705 51.269ZM88.5095 48.112C88.1315 48.112 87.7045 48.308 87.6485 49.106H89.2935C89.2935 48.385 89.0275 48.112 88.5095 48.112ZM90.4281 51.206V47.636H91.0931V48.035H91.1211C91.3311 47.797 91.6951 47.594 92.0801 47.594C92.1641 47.594 92.2691 47.601 92.3041 47.622V48.238C92.2131 48.224 92.0941 48.217 92.0241 48.217C91.6881 48.217 91.3591 48.315 91.1141 48.476V51.206H90.4281Z" fill="#4D4D4D"/>
<circle cx="43.9875" cy="77" r="4.9875" fill="#03C75A"/>
<path d="M42.1172 77.2077L43.468 78.4546L45.7539 75.7531" stroke="white" stroke-linecap="round" stroke-linejoin="round"/>
<path d="M53.991 79.131V73.83H52.218V72.957H56.853V73.83H55.098V79.131H53.991ZM59.4776 79.212C57.9386 79.212 57.1826 78.339 57.1826 76.872V76.746C57.1826 75.189 58.1276 74.424 59.3066 74.424C60.6746 74.424 61.2686 75.189 61.2686 76.665V77.097H58.2446C58.3076 78.06 58.8026 78.402 59.6846 78.402C60.2786 78.402 60.7106 78.267 61.1156 78.06V78.78C60.8006 78.987 60.2606 79.212 59.4776 79.212ZM59.2886 75.189C58.8116 75.189 58.3166 75.441 58.2446 76.386H60.2156C60.2156 75.513 59.8916 75.189 59.2886 75.189ZM61.9398 79.131V74.496H62.9388V75.036H62.9748C63.2268 74.703 63.7038 74.46 64.1898 74.46C64.3158 74.46 64.4328 74.469 64.4778 74.487V75.405C64.3608 75.387 64.2078 75.378 64.0998 75.378C63.6858 75.378 63.2718 75.495 62.9748 75.684V79.131H61.9398ZM65.0474 79.131V74.496H66.0464V74.91H66.0824C66.4784 74.631 66.9554 74.415 67.4954 74.415C68.0264 74.415 68.3864 74.577 68.5934 74.937H68.6474C69.1244 74.613 69.6464 74.415 70.1684 74.415C70.9874 74.415 71.4464 74.766 71.4464 75.684V79.131H70.4204V75.927C70.4204 75.468 70.2404 75.279 69.7094 75.279C69.4034 75.279 69.0974 75.369 68.7464 75.54C68.7554 75.612 68.7644 75.657 68.7644 75.747V79.131H67.7474V75.927C67.7474 75.468 67.5584 75.279 67.0364 75.279C66.7034 75.279 66.3614 75.387 66.0824 75.531V79.131H65.0474ZM73.6252 79.203C73.0222 79.203 72.4822 79.095 72.0952 78.888V78.132C72.4822 78.285 72.8242 78.42 73.4722 78.42C74.1202 78.42 74.3902 78.204 74.3902 77.862C74.3902 77.529 74.2102 77.367 73.7062 77.259L73.2742 77.16C72.5632 77.016 72.0952 76.656 72.0952 75.828C72.0952 74.973 72.6442 74.424 73.8142 74.424C74.4442 74.424 74.8402 74.541 75.1462 74.676V75.459C74.8762 75.342 74.4262 75.207 73.9042 75.207C73.3642 75.207 73.0762 75.387 73.0762 75.747C73.0762 76.071 73.2562 76.188 73.6972 76.296L74.1382 76.395C75.0472 76.602 75.3982 76.962 75.3982 77.763C75.3982 78.726 74.7592 79.203 73.6252 79.203ZM79.3192 79.212C78.4822 79.212 77.8972 78.789 77.8972 77.898C77.8972 77.043 78.4642 76.647 79.3822 76.512L80.4712 76.386V76.035C80.4712 75.405 80.1922 75.261 79.4092 75.261C78.9592 75.261 78.5632 75.324 78.2842 75.387V74.676C78.7162 74.505 79.2112 74.424 79.8142 74.424C80.8852 74.424 81.5062 74.838 81.5062 75.801V79.131H80.6512L80.5702 78.753H80.5162C80.2912 79.014 79.9222 79.212 79.3192 79.212ZM79.6342 78.483C79.9672 78.483 80.3002 78.366 80.4712 78.204V77.061L79.6162 77.151C79.1572 77.187 78.9142 77.376 78.9142 77.844C78.9142 78.285 79.2112 78.483 79.6342 78.483ZM82.426 79.131V74.496H83.425V74.91H83.461C83.857 74.622 84.424 74.415 84.982 74.415C85.873 74.415 86.332 74.775 86.332 75.693V79.131H85.288V75.936C85.288 75.468 85.135 75.279 84.505 75.279C84.145 75.279 83.74 75.396 83.461 75.531V79.131H82.426ZM88.8944 79.212C87.9764 79.212 87.0134 78.627 87.0134 76.953V76.836C87.0134 75.135 87.8774 74.415 89.0834 74.415C89.6234 74.415 89.9744 74.559 90.1904 74.676V72.552H91.2164V79.131H90.3344L90.2444 78.762H90.2084C89.9204 79.032 89.4884 79.212 88.8944 79.212ZM89.2544 78.411C89.6864 78.411 90.0104 78.231 90.1904 78.096V75.459C90.0194 75.324 89.6594 75.216 89.2454 75.216C88.5254 75.216 88.0754 75.594 88.0754 76.737V76.908C88.0754 78.06 88.5524 78.411 89.2544 78.411ZM96.819 79.23C95.1 79.23 94.038 78.222 94.038 76.143V75.918C94.038 73.695 95.334 72.858 96.936 72.858C97.62 72.858 98.106 72.975 98.484 73.182V74.046C98.007 73.857 97.584 73.758 97.017 73.758C95.946 73.758 95.235 74.334 95.235 75.801V76.116C95.235 77.529 95.73 78.33 97.026 78.33C97.728 78.33 98.178 78.15 98.547 77.997V78.852C98.124 79.077 97.557 79.23 96.819 79.23ZM101.159 79.212C99.7464 79.212 98.9634 78.357 98.9634 76.908V76.764C98.9634 75.279 99.8634 74.415 101.168 74.415C102.554 74.415 103.355 75.261 103.355 76.737V76.863C103.355 78.357 102.455 79.212 101.159 79.212ZM101.177 78.429C101.87 78.429 102.275 77.952 102.275 76.953V76.728C102.275 75.522 101.78 75.198 101.15 75.198C100.439 75.198 100.025 75.693 100.025 76.692V76.908C100.025 78.105 100.529 78.429 101.177 78.429ZM104.028 79.131V74.496H105.027V74.91H105.063C105.459 74.622 106.026 74.415 106.584 74.415C107.475 74.415 107.934 74.775 107.934 75.693V79.131H106.89V75.936C106.89 75.468 106.737 75.279 106.107 75.279C105.747 75.279 105.342 75.396 105.063 75.531V79.131H104.028ZM110.497 79.212C109.579 79.212 108.616 78.627 108.616 76.953V76.836C108.616 75.135 109.48 74.415 110.686 74.415C111.226 74.415 111.577 74.559 111.793 74.676V72.552H112.819V79.131H111.937L111.847 78.762H111.811C111.523 79.032 111.091 79.212 110.497 79.212ZM110.857 78.411C111.289 78.411 111.613 78.231 111.793 78.096V75.459C111.622 75.324 111.262 75.216 110.848 75.216C110.128 75.216 109.678 75.594 109.678 76.737V76.908C109.678 78.06 110.155 78.411 110.857 78.411ZM113.777 79.131V74.496H114.821V79.131H113.777ZM113.777 73.731V72.786H114.83V73.731H113.777ZM117.37 79.185C116.569 79.185 116.056 78.861 116.056 77.988V75.306H115.408V74.496H116.056V73.407H117.073V74.496H118.18V75.306H117.073V77.844C117.073 78.231 117.217 78.375 117.703 78.375C117.883 78.375 118.072 78.348 118.234 78.303V78.996C118.054 79.086 117.802 79.185 117.37 79.185ZM118.911 79.131V74.496H119.955V79.131H118.911ZM118.911 73.731V72.786H119.964V73.731H118.911ZM122.855 79.212C121.442 79.212 120.659 78.357 120.659 76.908V76.764C120.659 75.279 121.559 74.415 122.864 74.415C124.25 74.415 125.051 75.261 125.051 76.737V76.863C125.051 78.357 124.151 79.212 122.855 79.212ZM122.873 78.429C123.566 78.429 123.971 77.952 123.971 76.953V76.728C123.971 75.522 123.476 75.198 122.846 75.198C122.135 75.198 121.721 75.693 121.721 76.692V76.908C121.721 78.105 122.225 78.429 122.873 78.429ZM125.724 79.131V74.496H126.723V74.91H126.759C127.155 74.622 127.722 74.415 128.28 74.415C129.171 74.415 129.63 74.775 129.63 75.693V79.131H128.586V75.936C128.586 75.468 128.433 75.279 127.803 75.279C127.443 75.279 127.038 75.396 126.759 75.531V79.131H125.724ZM131.814 79.203C131.211 79.203 130.671 79.095 130.284 78.888V78.132C130.671 78.285 131.013 78.42 131.661 78.42C132.309 78.42 132.579 78.204 132.579 77.862C132.579 77.529 132.399 77.367 131.895 77.259L131.463 77.16C130.752 77.016 130.284 76.656 130.284 75.828C130.284 74.973 130.833 74.424 132.003 74.424C132.633 74.424 133.029 74.541 133.335 74.676V75.459C133.065 75.342 132.615 75.207 132.093 75.207C131.553 75.207 131.265 75.387 131.265 75.747C131.265 76.071 131.445 76.188 131.886 76.296L132.327 76.395C133.236 76.602 133.587 76.962 133.587 77.763C133.587 78.726 132.948 79.203 131.814 79.203Z" fill="#222222"/>
<circle cx="43.9875" cy="131" r="4.9875" fill="#03C75A"/>
<path d="M42.1172 131.208L43.468 132.455L45.7539 129.753" stroke="white" stroke-linecap="round" stroke-linejoin="round"/>
<path d="M52.729 133.131V126.957H54.286L55.789 131.61H55.816L57.319 126.957H58.867V133.131H57.76V128.334H57.724L56.176 133.131H55.267L53.728 128.334H53.701V133.131H52.729ZM61.073 133.212C60.236 133.212 59.651 132.789 59.651 131.898C59.651 131.043 60.218 130.647 61.136 130.512L62.225 130.386V130.035C62.225 129.405 61.946 129.261 61.163 129.261C60.713 129.261 60.317 129.324 60.038 129.387V128.676C60.47 128.505 60.965 128.424 61.568 128.424C62.639 128.424 63.26 128.838 63.26 129.801V133.131H62.405L62.324 132.753H62.27C62.045 133.014 61.676 133.212 61.073 133.212ZM61.388 132.483C61.721 132.483 62.054 132.366 62.225 132.204V131.061L61.37 131.151C60.911 131.187 60.668 131.376 60.668 131.844C60.668 132.285 60.965 132.483 61.388 132.483ZM64.1797 133.131V128.496H65.1787V129.036H65.2147C65.4667 128.703 65.9437 128.46 66.4297 128.46C66.5557 128.46 66.6727 128.469 66.7177 128.487V129.405C66.6007 129.387 66.4477 129.378 66.3397 129.378C65.9257 129.378 65.5117 129.495 65.2147 129.684V133.131H64.1797ZM67.2873 133.131V126.552H68.3223V133.131H67.2873ZM70.0503 133.131C69.9693 133.005 68.4843 130.854 68.4123 130.737C68.4843 130.611 69.9243 128.622 69.9963 128.505H71.0763C70.9863 128.613 69.5643 130.566 69.4923 130.674C69.5733 130.791 71.1123 132.996 71.1933 133.131H70.0503ZM73.7472 133.212C72.2082 133.212 71.4522 132.339 71.4522 130.872V130.746C71.4522 129.189 72.3972 128.424 73.5762 128.424C74.9442 128.424 75.5382 129.189 75.5382 130.665V131.097H72.5142C72.5772 132.06 73.0722 132.402 73.9542 132.402C74.5482 132.402 74.9802 132.267 75.3852 132.06V132.78C75.0702 132.987 74.5302 133.212 73.7472 133.212ZM73.5582 129.189C73.0812 129.189 72.5862 129.441 72.5142 130.386H74.4852C74.4852 129.513 74.1612 129.189 73.5582 129.189ZM77.8374 133.185C77.0364 133.185 76.5234 132.861 76.5234 131.988V129.306H75.8754V128.496H76.5234V127.407H77.5404V128.496H78.6474V129.306H77.5404V131.844C77.5404 132.231 77.6844 132.375 78.1704 132.375C78.3504 132.375 78.5394 132.348 78.7014 132.303V132.996C78.5214 133.086 78.2694 133.185 77.8374 133.185ZM79.379 133.131V128.496H80.423V133.131H79.379ZM79.379 127.731V126.786H80.432V127.731H79.379ZM81.3875 133.131V128.496H82.3865V128.91H82.4225C82.8185 128.622 83.3855 128.415 83.9435 128.415C84.8345 128.415 85.2935 128.775 85.2935 129.693V133.131H84.2495V129.936C84.2495 129.468 84.0965 129.279 83.4665 129.279C83.1065 129.279 82.7015 129.396 82.4225 129.531V133.131H81.3875ZM87.91 134.445C86.461 134.445 85.768 134.031 85.768 133.374C85.768 132.897 86.146 132.609 86.632 132.465V132.429C86.353 132.33 86.146 132.078 86.146 131.754C86.146 131.439 86.353 131.25 86.686 131.034C86.335 130.809 86.101 130.467 86.101 129.945V129.864C86.101 128.91 86.857 128.424 87.955 128.424C88.207 128.424 88.45 128.451 88.675 128.496H90.241V129.18H89.53C89.683 129.351 89.764 129.549 89.764 129.837V129.9C89.764 130.89 88.99 131.322 87.946 131.322C87.685 131.322 87.433 131.304 87.217 131.232C87.109 131.322 87.046 131.349 87.046 131.466C87.046 131.691 87.172 131.772 87.46 131.772H88.738C89.62 131.772 90.241 132.087 90.241 132.942C90.241 133.806 89.539 134.445 87.91 134.445ZM87.892 133.743C88.855 133.743 89.179 133.5 89.179 133.113C89.179 132.753 89.017 132.645 88.459 132.645H87.271C86.992 132.735 86.794 132.906 86.794 133.221C86.794 133.563 87.091 133.743 87.892 133.743ZM87.946 130.656C88.477 130.656 88.765 130.458 88.765 129.945V129.828C88.765 129.279 88.45 129.081 87.946 129.081C87.415 129.081 87.118 129.324 87.118 129.81V129.918C87.118 130.458 87.433 130.656 87.946 130.656ZM92.8372 133.131V128.496H93.8362V128.91H93.8722C94.2682 128.631 94.7452 128.415 95.2852 128.415C95.8162 128.415 96.1762 128.577 96.3832 128.937H96.4372C96.9142 128.613 97.4362 128.415 97.9582 128.415C98.7772 128.415 99.2362 128.766 99.2362 129.684V133.131H98.2102V129.927C98.2102 129.468 98.0302 129.279 97.4992 129.279C97.1932 129.279 96.8872 129.369 96.5362 129.54C96.5452 129.612 96.5542 129.657 96.5542 129.747V133.131H95.5372V129.927C95.5372 129.468 95.3482 129.279 94.8262 129.279C94.4932 129.279 94.1512 129.387 93.8722 129.531V133.131H92.8372ZM102.18 133.212C100.641 133.212 99.8849 132.339 99.8849 130.872V130.746C99.8849 129.189 100.83 128.424 102.009 128.424C103.377 128.424 103.971 129.189 103.971 130.665V131.097H100.947C101.01 132.06 101.505 132.402 102.387 132.402C102.981 132.402 103.413 132.267 103.818 132.06V132.78C103.503 132.987 102.963 133.212 102.18 133.212ZM101.991 129.189C101.514 129.189 101.019 129.441 100.947 130.386H102.918C102.918 129.513 102.594 129.189 101.991 129.189ZM105.911 133.203C105.308 133.203 104.768 133.095 104.381 132.888V132.132C104.768 132.285 105.11 132.42 105.758 132.42C106.406 132.42 106.676 132.204 106.676 131.862C106.676 131.529 106.496 131.367 105.992 131.259L105.56 131.16C104.849 131.016 104.381 130.656 104.381 129.828C104.381 128.973 104.93 128.424 106.1 128.424C106.73 128.424 107.126 128.541 107.432 128.676V129.459C107.162 129.342 106.712 129.207 106.19 129.207C105.65 129.207 105.362 129.387 105.362 129.747C105.362 130.071 105.542 130.188 105.983 130.296L106.424 130.395C107.333 130.602 107.684 130.962 107.684 131.763C107.684 132.726 107.045 133.203 105.911 133.203ZM109.634 133.203C109.031 133.203 108.491 133.095 108.104 132.888V132.132C108.491 132.285 108.833 132.42 109.481 132.42C110.129 132.42 110.399 132.204 110.399 131.862C110.399 131.529 110.219 131.367 109.715 131.259L109.283 131.16C108.572 131.016 108.104 130.656 108.104 129.828C108.104 128.973 108.653 128.424 109.823 128.424C110.453 128.424 110.849 128.541 111.155 128.676V129.459C110.885 129.342 110.435 129.207 109.913 129.207C109.373 129.207 109.085 129.387 109.085 129.747C109.085 130.071 109.265 130.188 109.706 130.296L110.147 130.395C111.056 130.602 111.407 130.962 111.407 131.763C111.407 132.726 110.768 133.203 109.634 133.203ZM113.249 133.212C112.412 133.212 111.827 132.789 111.827 131.898C111.827 131.043 112.394 130.647 113.312 130.512L114.401 130.386V130.035C114.401 129.405 114.122 129.261 113.339 129.261C112.889 129.261 112.493 129.324 112.214 129.387V128.676C112.646 128.505 113.141 128.424 113.744 128.424C114.815 128.424 115.436 128.838 115.436 129.801V133.131H114.581L114.5 132.753H114.446C114.221 133.014 113.852 133.212 113.249 133.212ZM113.564 132.483C113.897 132.483 114.23 132.366 114.401 132.204V131.061L113.546 131.151C113.087 131.187 112.844 131.376 112.844 131.844C112.844 132.285 113.141 132.483 113.564 132.483ZM118.013 134.445C116.564 134.445 115.871 134.031 115.871 133.374C115.871 132.897 116.249 132.609 116.735 132.465V132.429C116.456 132.33 116.249 132.078 116.249 131.754C116.249 131.439 116.456 131.25 116.789 131.034C116.438 130.809 116.204 130.467 116.204 129.945V129.864C116.204 128.91 116.96 128.424 118.058 128.424C118.31 128.424 118.553 128.451 118.778 128.496H120.344V129.18H119.633C119.786 129.351 119.867 129.549 119.867 129.837V129.9C119.867 130.89 119.093 131.322 118.049 131.322C117.788 131.322 117.536 131.304 117.32 131.232C117.212 131.322 117.149 131.349 117.149 131.466C117.149 131.691 117.275 131.772 117.563 131.772H118.841C119.723 131.772 120.344 132.087 120.344 132.942C120.344 133.806 119.642 134.445 118.013 134.445ZM117.995 133.743C118.958 133.743 119.282 133.5 119.282 133.113C119.282 132.753 119.12 132.645 118.562 132.645H117.374C117.095 132.735 116.897 132.906 116.897 133.221C116.897 133.563 117.194 133.743 117.995 133.743ZM118.049 130.656C118.58 130.656 118.868 130.458 118.868 129.945V129.828C118.868 129.279 118.553 129.081 118.049 129.081C117.518 129.081 117.221 129.324 117.221 129.81V129.918C117.221 130.458 117.536 130.656 118.049 130.656ZM122.895 133.212C121.356 133.212 120.6 132.339 120.6 130.872V130.746C120.6 129.189 121.545 128.424 122.724 128.424C124.092 128.424 124.686 129.189 124.686 130.665V131.097H121.662C121.725 132.06 122.22 132.402 123.102 132.402C123.696 132.402 124.128 132.267 124.533 132.06V132.78C124.218 132.987 123.678 133.212 122.895 133.212ZM122.706 129.189C122.229 129.189 121.734 129.441 121.662 130.386H123.633C123.633 129.513 123.309 129.189 122.706 129.189Z" fill="#222222"/>
<path d="M41 90L137 90" stroke="#EBEBEB" stroke-width="5" stroke-linecap="round" stroke-linejoin="round"/>
<path d="M41 144L137 144" stroke="#EBEBEB" stroke-width="5" stroke-linecap="round" stroke-linejoin="round"/>
<path d="M41 100L137 100" stroke="#EBEBEB" stroke-width="5" stroke-linecap="round" stroke-linejoin="round"/>
<path d="M41 154L137 154" stroke="#EBEBEB" stroke-width="5" stroke-linecap="round" stroke-linejoin="round"/>
<path d="M41 110L84 110" stroke="#EBEBEB" stroke-width="5" stroke-linecap="round" stroke-linejoin="round"/>
<path d="M41 164L84 164" stroke="#EBEBEB" stroke-width="5" stroke-linecap="round" stroke-linejoin="round"/>
<path d="M74 18L104 18" stroke="black" stroke-width="10" stroke-linecap="round" stroke-linejoin="round"/>
</g>
<defs>
<clipPath id="clip0_227_774">
<rect width="142" height="182" fill="white" transform="translate(18)"/>
</clipPath>
</defs>
</svg>
