<svg width="80" height="80" viewBox="0 0 80 80" fill="none" xmlns="http://www.w3.org/2000/svg">
<rect width="80" height="80" rx="20" fill="#F8F8F8"/>
<mask id="path-2-inside-1_109_979" fill="white">
<path d="M54.3072 15.2603C62.2089 19.8223 64.9168 29.9264 60.355 37.8282C56.3383 44.7852 48.0257 47.7139 40.7023 45.2016L39.4996 47.2846L42.869 49.2299L40.869 52.694L37.4996 50.7487L35.9205 53.4838L39.2899 55.4291L37.2899 58.8932L33.9205 56.9479L32.4996 59.409L35.869 61.3543L33.869 64.8184L30.4996 62.8731L27.9996 67.2032L21.9375 63.7032L34.707 41.5857C29.2574 36.452 27.8337 28.0727 31.7397 21.3072C36.3019 13.4057 46.4055 10.6984 54.3072 15.2603Z"/>
</mask>
<path d="M54.3072 15.2603C62.2089 19.8223 64.9168 29.9264 60.355 37.8282C56.3383 44.7852 48.0257 47.7139 40.7023 45.2016L39.4996 47.2846L42.869 49.2299L40.869 52.694L37.4996 50.7487L35.9205 53.4838L39.2899 55.4291L37.2899 58.8932L33.9205 56.9479L32.4996 59.409L35.869 61.3543L33.869 64.8184L30.4996 62.8731L27.9996 67.2032L21.9375 63.7032L34.707 41.5857C29.2574 36.452 27.8337 28.0727 31.7397 21.3072C36.3019 13.4057 46.4055 10.6984 54.3072 15.2603Z" fill="white"/>
<path d="M54.3072 15.2603L54.8072 14.3942L54.8072 14.3942L54.3072 15.2603ZM60.355 37.8282L61.221 38.3282L61.221 38.3282L60.355 37.8282ZM40.7023 45.2016L41.0268 44.2557L40.2479 43.9885L39.8362 44.7016L40.7023 45.2016ZM39.4996 47.2846L38.6336 46.7846L38.1336 47.6507L38.9996 48.1507L39.4996 47.2846ZM42.869 49.2299L43.735 49.7299L44.235 48.8639L43.369 48.3639L42.869 49.2299ZM40.869 52.694L40.369 53.5601L41.235 54.0601L41.735 53.194L40.869 52.694ZM37.4996 50.7487L37.9996 49.8827L37.1336 49.3827L36.6336 50.2487L37.4996 50.7487ZM35.9205 53.4838L35.0545 52.9838L34.5545 53.8498L35.4205 54.3498L35.9205 53.4838ZM39.2899 55.4291L40.1559 55.9291L40.6559 55.0631L39.7899 54.5631L39.2899 55.4291ZM37.2899 58.8932L36.7899 59.7593L37.6559 60.2593L38.1559 59.3932L37.2899 58.8932ZM33.9205 56.9479L34.4205 56.0819L33.5545 55.5819L33.0545 56.4479L33.9205 56.9479ZM32.4996 59.409L31.6336 58.909L31.1336 59.775L31.9996 60.275L32.4996 59.409ZM35.869 61.3543L36.735 61.8543L37.235 60.9883L36.369 60.4883L35.869 61.3543ZM33.869 64.8184L33.369 65.6844L34.235 66.1844L34.735 65.3184L33.869 64.8184ZM30.4996 62.8731L30.9996 62.0071L30.1336 61.5071L29.6336 62.3731L30.4996 62.8731ZM27.9996 67.2032L27.4996 68.0692L28.3657 68.5692L28.8657 67.7032L27.9996 67.2032ZM21.9375 63.7032L21.0714 63.2032L20.5714 64.0692L21.4375 64.5692L21.9375 63.7032ZM34.707 41.5857L35.573 42.0857L35.9687 41.4004L35.3927 40.8578L34.707 41.5857ZM31.7397 21.3072L30.8737 20.8072L30.8737 20.8072L31.7397 21.3072ZM54.3072 15.2603L53.8072 16.1263C61.2306 20.4122 63.7747 29.9048 59.4889 37.3282L60.355 37.8282L61.221 38.3282C66.059 29.9481 63.1871 19.2324 54.8072 14.3942L54.3072 15.2603ZM60.355 37.8282L59.4889 37.3282C55.7161 43.863 47.9066 46.6158 41.0268 44.2557L40.7023 45.2016L40.3778 46.1475C48.1447 48.8119 56.9605 45.7075 61.221 38.3282L60.355 37.8282ZM40.7023 45.2016L39.8362 44.7016L38.6336 46.7846L39.4996 47.2846L40.3657 47.7846L41.5683 45.7016L40.7023 45.2016ZM39.4996 47.2846L38.9996 48.1507L42.369 50.096L42.869 49.2299L43.369 48.3639L39.9996 46.4186L39.4996 47.2846ZM42.869 49.2299L42.003 48.7299L40.003 52.194L40.869 52.694L41.735 53.194L43.735 49.7299L42.869 49.2299ZM40.869 52.694L41.369 51.828L37.9996 49.8827L37.4996 50.7487L36.9996 51.6148L40.369 53.5601L40.869 52.694ZM37.4996 50.7487L36.6336 50.2487L35.0545 52.9838L35.9205 53.4838L36.7866 53.9838L38.3657 51.2487L37.4996 50.7487ZM35.9205 53.4838L35.4205 54.3498L38.7899 56.2952L39.2899 55.4291L39.7899 54.5631L36.4205 52.6178L35.9205 53.4838ZM39.2899 55.4291L38.4239 54.9291L36.4239 58.3932L37.2899 58.8932L38.1559 59.3932L40.1559 55.9291L39.2899 55.4291ZM37.2899 58.8932L37.7899 58.0272L34.4205 56.0819L33.9205 56.9479L33.4205 57.8139L36.7899 59.7593L37.2899 58.8932ZM33.9205 56.9479L33.0545 56.4479L31.6336 58.909L32.4996 59.409L33.3657 59.909L34.7866 57.4479L33.9205 56.9479ZM32.4996 59.409L31.9996 60.275L35.369 62.2203L35.869 61.3543L36.369 60.4883L32.9996 58.543L32.4996 59.409ZM35.869 61.3543L35.003 60.8543L33.003 64.3184L33.869 64.8184L34.735 65.3184L36.735 61.8543L35.869 61.3543ZM33.869 64.8184L34.369 63.9524L30.9996 62.0071L30.4996 62.8731L29.9996 63.7391L33.369 65.6844L33.869 64.8184ZM30.4996 62.8731L29.6336 62.3731L27.1336 66.7032L27.9996 67.2032L28.8657 67.7032L31.3657 63.3731L30.4996 62.8731ZM27.9996 67.2032L28.4996 66.3372L22.4375 62.8372L21.9375 63.7032L21.4375 64.5692L27.4996 68.0692L27.9996 67.2032ZM21.9375 63.7032L22.8035 64.2032L35.573 42.0857L34.707 41.5857L33.841 41.0857L21.0714 63.2032L21.9375 63.7032ZM34.707 41.5857L35.3927 40.8578C30.2729 36.0348 28.9368 28.162 32.6058 21.8072L31.7397 21.3072L30.8737 20.8072C26.7305 27.9834 28.2419 36.8692 34.0213 42.3136L34.707 41.5857ZM31.7397 21.3072L32.6058 21.8072C36.8917 14.384 46.3838 11.8406 53.8072 16.1263L54.3072 15.2603L54.8072 14.3942C46.4272 9.55624 35.712 12.4274 30.8737 20.8072L31.7397 21.3072Z" fill="#8C8C8C" mask="url(#path-2-inside-1_109_979)"/>
<path d="M48.5909 30.19L43.4152 22.7188C43.3219 22.5841 43.1685 22.5037 43.0046 22.5037H39.164C38.9916 22.5037 38.8518 22.6435 38.8518 22.8159V36.5539C38.8518 36.7263 38.9916 36.8661 39.164 36.8661H43.1629C43.3353 36.8661 43.4751 36.7263 43.4751 36.5539V29.1798L48.6507 36.651C48.7441 36.7857 48.8975 36.8661 49.0614 36.8661H52.902C53.0744 36.8661 53.2142 36.7263 53.2142 36.5539V22.8159C53.2142 22.6435 53.0744 22.5037 52.902 22.5037H48.9031C48.7306 22.5037 48.5909 22.6435 48.5909 22.8159V30.19Z" fill="#03C75A"/>
</svg>
